<?xml version="1.0" standalone="no"?>
<!DOCTYPE svg PUBLIC "-//W3C//DTD SVG 1.1//EN" "http://www.w3.org/Graphics/SVG/1.1/DTD/svg11.dtd">

<svg width="800" height="600" version="1.1" xmlns="http://www.w3.org/2000/svg">
	<ellipse stroke="black" stroke-width="1" fill="none" cx="75.5" cy="94.5" rx="30" ry="30"/>
	<text x="58.5" y="100.5" font-family="Times New Roman" font-size="20">char</text>
	<ellipse stroke="black" stroke-width="1" fill="none" cx="498.5" cy="124.5" rx="30" ry="30"/>
	<text x="480.5" y="130.5" font-family="Times New Roman" font-size="20">num</text>
	<ellipse stroke="black" stroke-width="1" fill="none" cx="321.5" cy="36.5" rx="30" ry="30"/>
	<text x="311.5" y="42.5" font-family="Times New Roman" font-size="20">op</text>
	<ellipse stroke="black" stroke-width="1" fill="none" cx="513.5" cy="316.5" rx="30" ry="30"/>
	<text x="484.5" y="322.5" font-family="Times New Roman" font-size="20">symbol</text>
	<ellipse stroke="black" stroke-width="1" fill="none" cx="361.5" cy="509.5" rx="30" ry="30"/>
	<text x="332.5" y="515.5" font-family="Times New Roman" font-size="20">bracket</text>
	<ellipse stroke="black" stroke-width="1" fill="none" cx="190.5" cy="509.5" rx="30" ry="30"/>
	<text x="177.5" y="515.5" font-family="Times New Roman" font-size="20">dot</text>
	<ellipse stroke="black" stroke-width="1" fill="none" cx="100.5" cy="509.5" rx="30" ry="30"/>
	<text x="97.5" y="515.5" font-family="Times New Roman" font-size="20">;</text>
	<path stroke="black" stroke-width="1" fill="none" d="M 468.501,124.307 A 3063.388,3063.388 0 0 1 105.226,98.543"/>
	<polygon fill="black" stroke-width="1" points="468.501,124.307 460.558,119.217 460.445,129.216"/>
	<text x="266.5" y="139.5" font-family="Times New Roman" font-size="20">0...9</text>
	<path stroke="black" stroke-width="1" fill="none" d="M 99.099,76.002 A 269.006,269.006 0 0 1 292.124,30.492"/>
	<polygon fill="black" stroke-width="1" points="292.124,30.492 284.936,24.382 283.481,34.275"/>
	<text x="80.5" y="20.5" font-family="Times New Roman" font-size="20">+, -, &lt;, &gt;, =, *, /</text>
	<path stroke="black" stroke-width="1" fill="none" d="M 484.469,308.94 A 1085.465,1085.465 0 0 1 98.761,113.444"/>
	<polygon fill="black" stroke-width="1" points="484.469,308.94 478.083,301.996 475.429,311.638"/>
	<text x="244.5" y="251.5" font-family="Times New Roman" font-size="20">a...z</text>
	<path stroke="black" stroke-width="1" fill="none" d="M 94.034,118.09 A 3792.019,3792.019 0 0 1 346.054,483.782"/>
	<polygon fill="black" stroke-width="1" points="346.054,483.782 346.184,474.349 337.632,479.532"/>
	<text x="231.5" y="289.5" font-family="Times New Roman" font-size="20">(, )</text>
	<path stroke="black" stroke-width="1" fill="none" d="M 180.766,481.123 A 3334.887,3334.887 0 0 1 81.76,123.839"/>
	<polygon fill="black" stroke-width="1" points="180.766,481.123 182.941,471.943 173.468,475.145"/>
	<text x="113.5" y="315.5" font-family="Times New Roman" font-size="20">.</text>
	<polygon stroke="black" stroke-width="1" points="77.304,124.446 98.696,479.554"/>
	<polygon fill="black" stroke-width="1" points="98.696,479.554 103.206,471.268 93.224,471.869"/>
	<text x="76.5" y="308.5" font-family="Times New Roman" font-size="20">;</text>
	<path stroke="black" stroke-width="1" fill="none" d="M 87.233,482.598 A 500.914,500.914 0 0 1 65.558,122.8"/>
	<polygon fill="black" stroke-width="1" points="65.558,122.8 58.369,128.909 67.899,131.939"/>
	<text x="28.5" y="311.5" font-family="Times New Roman" font-size="20">&#949;</text>
	<path stroke="black" stroke-width="1" fill="none" d="M 88.275,121.643 A 1188.417,1188.417 0 0 1 187.482,479.653"/>
	<polygon fill="black" stroke-width="1" points="88.275,121.643 87.039,130.996 96.141,126.852"/>
	<text x="159.5" y="297.5" font-family="Times New Roman" font-size="20">&#949;</text>
	<path stroke="black" stroke-width="1" fill="none" d="M 341.947,486.748 A 2230.237,2230.237 0 0 1 89.801,120.872"/>
	<polygon fill="black" stroke-width="1" points="89.801,120.872 89.283,130.291 98.041,125.465"/>
	<text x="192.5" y="329.5" font-family="Times New Roman" font-size="20">&#949;</text>
	<path stroke="black" stroke-width="1" fill="none" d="M 103.13,106.186 A 3344.316,3344.316 0 0 1 487.74,301.125"/>
	<polygon fill="black" stroke-width="1" points="103.13,106.186 108.516,113.931 112.453,104.739"/>
	<text x="303.5" y="188.5" font-family="Times New Roman" font-size="20">&#949;*</text>
	<path stroke="black" stroke-width="1" fill="none" d="M 105.466,93.075 A 1669.87,1669.87 0 0 1 469.035,118.86"/>
	<polygon fill="black" stroke-width="1" points="105.466,93.075 113.652,97.763 113.267,87.77"/>
	<text x="280.5" y="86.5" font-family="Times New Roman" font-size="20">&#949;*</text>
	<polygon stroke="black" stroke-width="1" points="292.301,43.384 104.699,87.616"/>
	<polygon fill="black" stroke-width="1" points="104.699,87.616 113.633,90.646 111.339,80.913"/>
	<text x="198.5" y="87.5" font-family="Times New Roman" font-size="20">&#949;*</text>
</svg>
