<?xml version="1.0" standalone="no"?>
<!DOCTYPE svg PUBLIC "-//W3C//DTD SVG 1.1//EN" "http://www.w3.org/Graphics/SVG/1.1/DTD/svg11.dtd">

<svg width="800" height="600" version="1.1" xmlns="http://www.w3.org/2000/svg">
	<ellipse stroke="black" stroke-width="1" fill="none" cx="75.5" cy="142.5" rx="30" ry="30"/>
	<text x="57.5" y="148.5" font-family="Times New Roman" font-size="20">num</text>
	<ellipse stroke="black" stroke-width="1" fill="none" cx="186.5" cy="144.5" rx="30" ry="30"/>
	<ellipse stroke="black" stroke-width="1" fill="none" cx="298.5" cy="144.5" rx="30" ry="30"/>
	<text x="272.5" y="150.5" font-family="Times New Roman" font-size="20">d=true</text>
	<ellipse stroke="black" stroke-width="1" fill="none" cx="416.5" cy="144.5" rx="30" ry="30"/>
	<ellipse stroke="black" stroke-width="1" fill="none" cx="528.5" cy="144.5" rx="30" ry="30"/>
	<ellipse stroke="black" stroke-width="1" fill="none" cx="673.5" cy="144.5" rx="30" ry="30"/>
	<ellipse stroke="black" stroke-width="1" fill="none" cx="673.5" cy="277.5" rx="30" ry="30"/>
	<ellipse stroke="black" stroke-width="1" fill="none" cx="416.5" cy="277.5" rx="30" ry="30"/>
	<text x="389.5" y="283.5" font-family="Times New Roman" font-size="20">double</text>
	<ellipse stroke="black" stroke-width="1" fill="none" cx="416.5" cy="277.5" rx="24" ry="24"/>
	<ellipse stroke="black" stroke-width="1" fill="none" cx="260.5" cy="285.5" rx="30" ry="30"/>
	<text x="249.5" y="291.5" font-family="Times New Roman" font-size="20">int</text>
	<ellipse stroke="black" stroke-width="1" fill="none" cx="260.5" cy="285.5" rx="24" ry="24"/>
	<ellipse stroke="black" stroke-width="1" fill="none" cx="116.5" cy="285.5" rx="30" ry="30"/>
	<text x="97.5" y="291.5" font-family="Times New Roman" font-size="20">error</text>
	<ellipse stroke="black" stroke-width="1" fill="none" cx="116.5" cy="285.5" rx="24" ry="24"/>
	<polygon stroke="black" stroke-width="1" points="105.495,143.04 156.505,143.96"/>
	<polygon fill="black" stroke-width="1" points="156.505,143.96 148.596,138.816 148.416,148.815"/>
	<text x="112.5" y="134.5" font-family="Times New Roman" font-size="20">digit</text>
	<path stroke="black" stroke-width="1" fill="none" d="M 173.275,117.703 A 22.5,22.5 0 1 1 199.725,117.703"/>
	<text x="168.5" y="68.5" font-family="Times New Roman" font-size="20">digit</text>
	<polygon fill="black" stroke-width="1" points="199.725,117.703 208.473,114.17 200.382,108.292"/>
	<polygon stroke="black" stroke-width="1" points="216.5,144.5 268.5,144.5"/>
	<polygon fill="black" stroke-width="1" points="268.5,144.5 260.5,139.5 260.5,149.5"/>
	<text x="240.5" y="135.5" font-family="Times New Roman" font-size="20">.</text>
	<polygon stroke="black" stroke-width="1" points="328.5,144.5 386.5,144.5"/>
	<polygon fill="black" stroke-width="1" points="386.5,144.5 378.5,139.5 378.5,149.5"/>
	<text x="339.5" y="135.5" font-family="Times New Roman" font-size="20">digit</text>
	<path stroke="black" stroke-width="1" fill="none" d="M 403.275,117.703 A 22.5,22.5 0 1 1 429.725,117.703"/>
	<text x="398.5" y="68.5" font-family="Times New Roman" font-size="20">digit</text>
	<polygon fill="black" stroke-width="1" points="429.725,117.703 438.473,114.17 430.382,108.292"/>
	<polygon stroke="black" stroke-width="1" points="446.5,144.5 498.5,144.5"/>
	<polygon fill="black" stroke-width="1" points="498.5,144.5 490.5,139.5 490.5,149.5"/>
	<text x="468.5" y="135.5" font-family="Times New Roman" font-size="20">e</text>
	<path stroke="black" stroke-width="1" fill="none" d="M 645.331,154.71 A 172.081,172.081 0 0 1 556.669,154.71"/>
	<polygon fill="black" stroke-width="1" points="645.331,154.71 636.313,151.94 638.889,161.602"/>
	<text x="596.5" y="181.5" font-family="Times New Roman" font-size="20">&#949;</text>
	<polygon stroke="black" stroke-width="1" points="673.5,174.5 673.5,247.5"/>
	<polygon fill="black" stroke-width="1" points="673.5,247.5 678.5,239.5 668.5,239.5"/>
	<text x="631.5" y="217.5" font-family="Times New Roman" font-size="20">digit</text>
	<path stroke="black" stroke-width="1" fill="none" d="M 700.297,264.275 A 22.5,22.5 0 1 1 700.297,290.725"/>
	<text x="746.5" y="283.5" font-family="Times New Roman" font-size="20">digit</text>
	<polygon fill="black" stroke-width="1" points="700.297,290.725 703.83,299.473 709.708,291.382"/>
	<path stroke="black" stroke-width="1" fill="none" d="M 502.309,159.109 A 324.499,324.499 0 0 1 212.691,159.109"/>
	<polygon fill="black" stroke-width="1" points="502.309,159.109 492.919,158.204 497.382,167.153"/>
	<text x="353.5" y="214.5" font-family="Times New Roman" font-size="20">e</text>
	<polygon stroke="black" stroke-width="1" points="416.5,174.5 416.5,247.5"/>
	<polygon fill="black" stroke-width="1" points="416.5,247.5 421.5,239.5 411.5,239.5"/>
	<text x="421.5" y="217.5" font-family="Times New Roman" font-size="20">other</text>
	<polygon stroke="black" stroke-width="1" points="200.441,171.064 246.559,258.936"/>
	<polygon fill="black" stroke-width="1" points="246.559,258.936 247.268,249.529 238.414,254.176"/>
	<text x="175.5" y="232.5" font-family="Times New Roman" font-size="20">other</text>
	<polygon stroke="black" stroke-width="1" points="173.16,171.371 129.84,258.629"/>
	<polygon fill="black" stroke-width="1" points="129.84,258.629 137.876,253.687 128.919,249.24"/>
	<text x="111.5" y="209.5" font-family="Times New Roman" font-size="20">a...z</text>
	<polygon stroke="black" stroke-width="1" points="643.5,277.5 446.5,277.5"/>
	<polygon fill="black" stroke-width="1" points="446.5,277.5 454.5,282.5 454.5,272.5"/>
	<text x="473.5" y="268.5" font-family="Times New Roman" font-size="20">other and d = true</text>
	<path stroke="black" stroke-width="1" fill="none" d="M 645.619,288.564 A 548.958,548.958 0 0 1 288.789,295.476"/>
	<polygon fill="black" stroke-width="1" points="288.789,295.476 294.87,302.689 297.937,293.171"/>
	<text x="393.5" y="344.5" font-family="Times New Roman" font-size="20">other and d = false</text>
	<path stroke="black" stroke-width="1" fill="none" d="M 557.237,135.981 A 205.076,205.076 0 0 1 644.763,135.981"/>
	<polygon fill="black" stroke-width="1" points="644.763,135.981 638.014,129.389 635.88,139.159"/>
	<text x="555.5" y="122.5" font-family="Times New Roman" font-size="20">- set d=true</text>
</svg>
