<?xml version="1.0" standalone="no"?>
<!DOCTYPE svg PUBLIC "-//W3C//DTD SVG 1.1//EN" "http://www.w3.org/Graphics/SVG/1.1/DTD/svg11.dtd">

<svg width="800" height="600" version="1.1" xmlns="http://www.w3.org/2000/svg">
	<ellipse stroke="black" stroke-width="1" fill="none" cx="68.5" cy="268.5" rx="30" ry="30"/>
	<text x="54.5" y="274.5" font-family="Times New Roman" font-size="20">a..z</text>
	<ellipse stroke="black" stroke-width="1" fill="none" cx="68.5" cy="268.5" rx="24" ry="24"/>
	<ellipse stroke="black" stroke-width="1" fill="none" cx="219.5" cy="268.5" rx="30" ry="30"/>
	<ellipse stroke="black" stroke-width="1" fill="none" cx="347.5" cy="158.5" rx="30" ry="30"/>
	<text x="312.5" y="164.5" font-family="Times New Roman" font-size="20">keyword</text>
	<ellipse stroke="black" stroke-width="1" fill="none" cx="347.5" cy="158.5" rx="24" ry="24"/>
	<ellipse stroke="black" stroke-width="1" fill="none" cx="412.5" cy="268.5" rx="30" ry="30"/>
	<text x="404.5" y="274.5" font-family="Times New Roman" font-size="20">id</text>
	<ellipse stroke="black" stroke-width="1" fill="none" cx="412.5" cy="268.5" rx="24" ry="24"/>
	<path stroke="black" stroke-width="1" fill="none" d="M 55.275,241.703 A 22.5,22.5 0 1 1 81.725,241.703"/>
	<text x="29.5" y="192.5" font-family="Times New Roman" font-size="20">a...z, 0...9</text>
	<polygon fill="black" stroke-width="1" points="81.725,241.703 90.473,238.17 82.382,232.292"/>
	<polygon stroke="black" stroke-width="1" points="98.5,268.5 189.5,268.5"/>
	<polygon fill="black" stroke-width="1" points="189.5,268.5 181.5,263.5 181.5,273.5"/>
	<text x="123.5" y="289.5" font-family="Times New Roman" font-size="20">other</text>
	<polygon stroke="black" stroke-width="1" points="242.253,248.947 324.747,178.053"/>
	<polygon fill="black" stroke-width="1" points="324.747,178.053 315.421,179.475 321.939,187.059"/>
	<text x="191.5" y="204.5" font-family="Times New Roman" font-size="20">if keyword</text>
	<polygon stroke="black" stroke-width="1" points="249.5,268.5 382.5,268.5"/>
	<polygon fill="black" stroke-width="1" points="382.5,268.5 374.5,263.5 374.5,273.5"/>
	<text x="257.5" y="289.5" font-family="Times New Roman" font-size="20">if not keyword</text>
</svg>
